<svg xmlns="http://www.w3.org/2000/svg" viewBox="0 0 40 36" width="20" height="18">
	<defs>
		<clipPath clipPathUnits="userSpaceOnUse" id="cp1">
			<path d="M-3384 -1954L456 -1954L456 1029L-3384 1029Z" />
		</clipPath>
	</defs>
	<style>
		tspan { white-space:pre }
		.shp0 { fill: #a3a3a3 } 
	</style>
	<g id="Page 8" clip-path="url(#cp1)">
		<path id="Path 1172" class="shp0" d="M18.06 2.47L34.32 18.73C37.45 21.85 37.45 26.92 34.32 30.04C31.19 33.17 26.13 33.17 23.01 30.04L5.33 12.36C3.38 10.41 3.38 7.25 5.33 5.29C7.28 3.34 10.45 3.34 12.4 5.29L27.25 20.14C28.03 20.92 28.03 22.19 27.25 22.97C26.47 23.75 25.2 23.75 24.42 22.97L10.99 9.54L8.86 11.66L22.3 25.09C24.25 27.04 27.42 27.04 29.37 25.09C31.32 23.14 31.32 19.97 29.37 18.02L14.52 3.17C11.4 0.05 6.33 0.05 3.21 3.17C0.08 6.3 0.08 11.36 3.21 14.49L20.89 32.16C25.18 36.46 32.14 36.46 36.44 32.16C40.74 27.86 40.74 20.91 36.44 16.61L20.18 0.34L18.06 2.47Z" />
	</g>
</svg>