<svg xmlns="http://www.w3.org/2000/svg" viewBox="0 0 81 81" width="40" height="40">
	<defs>
		<clipPath clipPathUnits="userSpaceOnUse" id="cp1">
			<path d="M-3199 -1778L641 -1778L641 1205L-3199 1205Z" />
		</clipPath>
	</defs>
	<style>
		tspan { white-space:pre }
		.shp0 { fill: #f05c4e } 
		.shp1 { fill: #ffffff } 
	</style>
	<g id="Page 8" clip-path="url(#cp1)">
		<path id="Path 1194" class="shp0" d="M80.79 40.63C80.79 62.72 62.88 80.63 40.79 80.63C18.7 80.63 0.79 62.72 0.79 40.63C0.79 18.54 18.7 0.63 40.79 0.63C62.88 0.63 80.79 18.54 80.79 40.63Z" />
		<path id="Path 1195" fill-rule="evenodd" class="shp1" d="M54.79 58.63L26.79 58.63C24.59 58.63 22.79 56.83 22.79 54.63L22.79 26.63C22.79 24.43 24.59 22.63 26.79 22.63L54.79 22.63C56.99 22.63 58.79 24.43 58.79 26.63L58.79 54.63C58.79 56.83 56.99 58.63 54.79 58.63ZM33.03 44.63L28.05 51.03C27.53 51.69 27.99 52.65 28.83 52.65L52.81 52.65C53.63 52.65 54.11 51.71 53.61 51.05L46.59 41.69C46.19 41.15 45.39 41.15 44.99 41.67L38.79 49.65L34.59 44.59C34.17 44.09 33.41 44.11 33.03 44.63Z" />
	</g>
</svg>