<svg xmlns="http://www.w3.org/2000/svg" viewBox="0 0 81 81" width="40" height="40">
	<defs>
		<clipPath clipPathUnits="userSpaceOnUse" id="cp1">
			<path d="M-3328 -1778L512 -1778L512 1205L-3328 1205Z" />
		</clipPath>
	</defs>
	<style>
		tspan { white-space:pre }
		.shp0 { fill: #00b3c8 } 
		.shp1 { fill: #ffffff } 
	</style>
	<g id="Page 8" clip-path="url(#cp1)">
		<path id="Path 1191" class="shp0" d="M80.6 40.63C80.6 62.72 62.69 80.63 40.6 80.63C18.51 80.63 0.6 62.72 0.6 40.63C0.6 18.54 18.51 0.63 40.6 0.63C62.69 0.63 80.6 18.54 80.6 40.63Z" />
		<path id="Path 1192" fill-rule="evenodd" class="shp1" d="M60.6 24.63L60.6 48.63C60.6 50.83 58.8 52.63 56.6 52.63L32.6 52.63C30.4 52.63 28.6 50.83 28.6 48.63L28.6 24.63C28.6 22.43 30.4 20.63 32.6 20.63L56.6 20.63C58.8 20.63 60.6 22.43 60.6 24.63ZM51.54 37.43C52.08 37.03 52.08 36.23 51.54 35.83L40.6 27.63L40.6 45.63L51.54 37.43ZM24.6 30.63L24.6 54.63C24.6 55.73 25.5 56.63 26.6 56.63L50.6 56.63C51.7 56.63 52.6 57.53 52.6 58.63C52.6 59.73 51.7 60.63 50.6 60.63L24.6 60.63C22.4 60.63 20.6 58.83 20.6 56.63L20.6 30.63C20.6 29.53 21.5 28.63 22.6 28.63C23.7 28.63 24.6 29.53 24.6 30.63Z" />
	</g>
</svg>